<svg data-v-423bf9ae="" xmlns="http://www.w3.org/2000/svg" viewBox="0 0 454 100" class="iconLeft"><!----><!----><!----><g data-v-423bf9ae="" id="817d70d4-9e3c-46e1-b796-5ed7c7616bb9" fill="black" transform="matrix(4.8979591836734695,0,0,4.8979591836734695,119.12000601632255,19.507556915283203)"><path d="M8.75 12.25L0 12.25L0 0L8.75 0L8.75 1.75L10.50 1.75L10.50 3.50L12.25 3.50L12.25 8.75L10.50 8.75L10.50 10.50L8.75 10.50L8.75 12.25ZM3.50 1.75L3.50 10.50L7 10.50L7 8.75L8.75 8.75L8.75 3.50L7 3.50L7 1.75L3.50 1.75ZM19.25 3.50L19.25 5.25L21 5.25L21 7L19.25 7L19.25 12.25L15.75 12.25L15.75 3.50L19.25 3.50ZM21 3.50L26.25 3.50L26.25 5.25L21 5.25L21 3.50ZM38.50 12.25L29.75 12.25L29.75 10.50L28 10.50L28 5.25L29.75 5.25L29.75 3.50L38.50 3.50L38.50 5.25L40.25 5.25L40.25 10.50L38.50 10.50L38.50 12.25ZM31.50 5.25L31.50 10.50L36.75 10.50L36.75 5.25L31.50 5.25ZM50.75 1.75L47.25 1.75L47.25 0L50.75 0L50.75 1.75ZM54.25 12.25L43.75 12.25L43.75 10.50L47.25 10.50L47.25 5.25L45.50 5.25L45.50 3.50L50.75 3.50L50.75 10.50L54.25 10.50L54.25 12.25ZM68.25 12.25L57.75 12.25L57.75 10.50L56 10.50L56 5.25L57.75 5.25L57.75 3.50L64.75 3.50L64.75 0L68.25 0L68.25 12.25ZM59.50 5.25L59.50 10.50L64.75 10.50L64.75 5.25L59.50 5.25Z"></path></g><!----><g data-v-423bf9ae="" id="54664dcc-5338-43a2-8389-f06622edf943" transform="matrix(1.048888905843099,0,0,1.048888905843099,-2.726223062303326,-1.6248905114068037)" stroke="none" fill="black"><path d="M63.2 27.5c-1.9 0-3.8.6-5.3 1.6L46.3 17.4c1-1.5 1.6-3.3 1.6-5.3 0-5.3-4.3-9.7-9.7-9.7s-9.7 4.3-9.7 9.7c0 1.9.6 3.8 1.6 5.3L18.4 29c-1.5-1-3.3-1.6-5.3-1.6-5.3 0-9.7 4.3-9.7 9.7s4.3 9.7 9.7 9.7 9.7-4.3 9.7-9.7c0-1.9-.6-3.8-1.6-5.3l11.6-11.6c1.5 1 3.3 1.6 5.3 1.6 1.9 0 3.8-.6 5.3-1.6L55 31.8c-1 1.5-1.6 3.3-1.6 5.3 0 5.3 4.3 9.7 9.7 9.7 5.3 0 9.7-4.3 9.7-9.7s-4.3-9.6-9.6-9.6zM88.2 52.5c-5.3 0-9.7 4.3-9.7 9.7 0 1.9.6 3.8 1.6 5.3L68.4 79c-1.5-1-3.3-1.6-5.3-1.6-1.9 0-3.8.6-5.3 1.6L46.3 67.4c1-1.5 1.6-3.3 1.6-5.3 0-5.3-4.3-9.7-9.7-9.7s-9.7 4.3-9.7 9.7c0 5.3 4.3 9.7 9.7 9.7 1.9 0 3.8-.6 5.3-1.6l11.6 11.6c-1 1.5-1.6 3.3-1.6 5.3 0 5.3 4.3 9.7 9.7 9.7 5.3 0 9.7-4.3 9.7-9.7 0-1.9-.6-3.8-1.6-5.3l11.6-11.6c1.5 1 3.3 1.6 5.3 1.6 5.3 0 9.7-4.3 9.7-9.7-.1-5.3-4.4-9.6-9.7-9.6z"></path><path d="M38.2 77.5c-1.9 0-3.8.6-5.3 1.6L21.3 67.4c1-1.5 1.6-3.3 1.6-5.3 0-1.9-.6-3.8-1.6-5.3l11.6-11.6c1.5 1 3.3 1.6 5.3 1.6 5.3 0 9.7-4.3 9.7-9.7s-4.3-9.7-9.7-9.7-9.7 4.3-9.7 9.7c0 1.9.6 3.8 1.6 5.3L18.4 54c-1.5-1-3.3-1.6-5.3-1.6-5.3 0-9.7 4.3-9.7 9.7 0 5.3 4.3 9.7 9.7 9.7 1.9 0 3.8-.6 5.3-1.6L30 81.8c-1 1.5-1.6 3.3-1.6 5.3 0 5.3 4.3 9.7 9.7 9.7s9.7-4.3 9.7-9.7c0-5.3-4.3-9.6-9.6-9.6zM88.2 27.5c-1.9 0-3.8.6-5.3 1.6L71.3 17.4c1-1.5 1.6-3.3 1.6-5.3 0-5.3-4.3-9.7-9.7-9.7-5.3 0-9.7 4.3-9.7 9.7s4.3 9.7 9.7 9.7c1.9 0 3.8-.6 5.3-1.6l11.6 11.6c-1 1.5-1.6 3.3-1.6 5.3 0 1.9.6 3.8 1.6 5.3L68.4 54c-1.5-1-3.3-1.6-5.3-1.6-5.3 0-9.7 4.3-9.7 9.7 0 5.3 4.3 9.7 9.7 9.7 5.3 0 9.7-4.3 9.7-9.7 0-1.9-.6-3.8-1.6-5.3l11.6-11.6c1.5 1 3.3 1.6 5.3 1.6 5.3 0 9.7-4.3 9.7-9.7s-4.3-9.6-9.6-9.6z"></path></g><!----></svg>