<svg data-v-fde0c5aa="" xmlns="http://www.w3.org/2000/svg" viewBox="0 0 300 300" class="font"><!----><defs data-v-fde0c5aa=""><!----></defs><rect data-v-fde0c5aa="" fill="#3B1342" x="0" y="0" width="300px" height="300px" class="logo-background-square"></rect><defs data-v-fde0c5aa=""><!----></defs><g data-v-fde0c5aa="" id="84d16f3c-69ba-43e7-b06e-243b6b1a0425" fill="#BF557B" transform="matrix(3.2234432234432235,0,0,3.2234432234432235,40,130.25641025641025)"><path d="M8.75 12.25L0 12.25L0 0L8.75 0L8.75 1.75L10.50 1.75L10.50 3.50L12.25 3.50L12.25 8.75L10.50 8.75L10.50 10.50L8.75 10.50L8.75 12.25ZM3.50 1.75L3.50 10.50L7 10.50L7 8.75L8.75 8.75L8.75 3.50L7 3.50L7 1.75L3.50 1.75ZM19.25 3.50L19.25 5.25L21 5.25L21 7L19.25 7L19.25 12.25L15.75 12.25L15.75 3.50L19.25 3.50ZM21 3.50L26.25 3.50L26.25 5.25L21 5.25L21 3.50ZM38.50 12.25L29.75 12.25L29.75 10.50L28 10.50L28 5.25L29.75 5.25L29.75 3.50L38.50 3.50L38.50 5.25L40.25 5.25L40.25 10.50L38.50 10.50L38.50 12.25ZM31.50 5.25L31.50 10.50L36.75 10.50L36.75 5.25L31.50 5.25ZM50.75 1.75L47.25 1.75L47.25 0L50.75 0L50.75 1.75ZM54.25 12.25L43.75 12.25L43.75 10.50L47.25 10.50L47.25 5.25L45.50 5.25L45.50 3.50L50.75 3.50L50.75 10.50L54.25 10.50L54.25 12.25ZM68.25 12.25L57.75 12.25L57.75 10.50L56 10.50L56 5.25L57.75 5.25L57.75 3.50L64.75 3.50L64.75 0L68.25 0L68.25 12.25ZM59.50 5.25L59.50 10.50L64.75 10.50L64.75 5.25L59.50 5.25Z"></path></g><!----><!----></svg>