<svg width="454" height="100" xmlns="http://www.w3.org/2000/svg" class="iconLeft">
 <!---->

 <!---->
 <!---->
 <!---->
 <!---->
 <g>
  <title>Layer 1</title>
  <g fill="black" transform="matrix(1.04889 0 0 1.04889 -2.72622 -1.62489)" id="00ade270-6628-494f-9bf4-0d6268734042">
   <path id="svg_2" d="m80.36102,27.5c-1.9,0 -3.8,0.6 -5.3,1.6l-11.6,-11.7c1,-1.5 1.6,-3.3 1.6,-5.3c0,-5.3 -4.3,-9.7 -9.7,-9.7s-9.7,4.3 -9.7,9.7c0,1.9 0.6,3.8 1.6,5.3l-11.7,11.6c-1.5,-1 -3.3,-1.6 -5.3,-1.6c-5.3,0 -9.7,4.3 -9.7,9.7s4.3,9.7 9.7,9.7s9.7,-4.3 9.7,-9.7c0,-1.9 -0.6,-3.8 -1.6,-5.3l11.6,-11.6c1.5,1 3.3,1.6 5.3,1.6c1.9,0 3.8,-0.6 5.3,-1.6l11.6,11.6c-1,1.5 -1.6,3.3 -1.6,5.3c0,5.3 4.3,9.7 9.7,9.7c5.3,0 9.7,-4.3 9.7,-9.7s-4.3,-9.6 -9.6,-9.6zm25,25c-5.3,0 -9.7,4.3 -9.7,9.7c0,1.9 0.6,3.8 1.6,5.3l-11.7,11.5c-1.5,-1 -3.3,-1.6 -5.3,-1.6c-1.9,0 -3.8,0.6 -5.3,1.6l-11.5,-11.6c1,-1.5 1.6,-3.3 1.6,-5.3c0,-5.3 -4.3,-9.7 -9.7,-9.7s-9.7,4.3 -9.7,9.7c0,5.3 4.3,9.7 9.7,9.7c1.9,0 3.8,-0.6 5.3,-1.6l11.6,11.6c-1,1.5 -1.6,3.3 -1.6,5.3c0,5.3 4.3,9.7 9.7,9.7c5.3,0 9.7,-4.3 9.7,-9.7c0,-1.9 -0.6,-3.8 -1.6,-5.3l11.6,-11.6c1.5,1 3.3,1.6 5.3,1.6c5.3,0 9.7,-4.3 9.7,-9.7c-0.1,-5.3 -4.4,-9.6 -9.7,-9.6z"/>
   <path id="svg_3" d="m55.36102,77.5c-1.9,0 -3.8,0.6 -5.3,1.6l-11.6,-11.7c1,-1.5 1.6,-3.3 1.6,-5.3c0,-1.9 -0.6,-3.8 -1.6,-5.3l11.6,-11.6c1.5,1 3.3,1.6 5.3,1.6c5.3,0 9.7,-4.3 9.7,-9.7s-4.3,-9.7 -9.7,-9.7s-9.7,4.3 -9.7,9.7c0,1.9 0.6,3.8 1.6,5.3l-11.7,11.6c-1.5,-1 -3.3,-1.6 -5.3,-1.6c-5.3,0 -9.7,4.3 -9.7,9.7c0,5.3 4.3,9.7 9.7,9.7c1.9,0 3.8,-0.6 5.3,-1.6l11.6,11.6c-1,1.5 -1.6,3.3 -1.6,5.3c0,5.3 4.3,9.7 9.7,9.7s9.7,-4.3 9.7,-9.7c0,-5.3 -4.3,-9.6 -9.6,-9.6zm50,-50c-1.9,0 -3.8,0.6 -5.3,1.6l-11.6,-11.7c1,-1.5 1.6,-3.3 1.6,-5.3c0,-5.3 -4.3,-9.7 -9.7,-9.7c-5.3,0 -9.7,4.3 -9.7,9.7s4.3,9.7 9.7,9.7c1.9,0 3.8,-0.6 5.3,-1.6l11.6,11.6c-1,1.5 -1.6,3.3 -1.6,5.3c0,1.9 0.6,3.8 1.6,5.3l-11.7,11.6c-1.5,-1 -3.3,-1.6 -5.3,-1.6c-5.3,0 -9.7,4.3 -9.7,9.7c0,5.3 4.3,9.7 9.7,9.7c5.3,0 9.7,-4.3 9.7,-9.7c0,-1.9 -0.6,-3.8 -1.6,-5.3l11.6,-11.6c1.5,1 3.3,1.6 5.3,1.6c5.3,0 9.7,-4.3 9.7,-9.7s-4.3,-9.6 -9.6,-9.6z"/>
  </g>
 </g>
</svg>